<?xml version="1.0" encoding="UTF-8" standalone="no"?><svg xmlns="http://www.w3.org/2000/svg" xmlns:xlink="http://www.w3.org/1999/xlink" contentScriptType="application/ecmascript" contentStyleType="text/css" height="188px" preserveAspectRatio="none" style="width:182px;height:188px;" version="1.1" viewBox="0 0 182 188" width="182px" zoomAndPan="magnify"><defs/><g><ellipse cx="109.8345" cy="21.242" fill="#F8F8F8" rx="26.3345" ry="13.242" style="stroke: #383838; stroke-width: 0.6;"/><text fill="#000000" font-family="Tahoma, sans-serif" font-size="12" font-weight="bold" lengthAdjust="spacingAndGlyphs" textLength="33" x="93.3345" y="24.9842">index</text><ellipse cx="109.8762" cy="164.242" fill="#F8F8F8" rx="50.3762" ry="13.242" style="stroke: #383838; stroke-width: 0.6;"/><text fill="#000000" font-family="Tahoma, sans-serif" font-size="12" lengthAdjust="spacingAndGlyphs" textLength="67" x="76.3762" y="167.9842">CanvasAtom</text><ellipse cx="64.8344" cy="68.1669" fill="#F8F8F8" rx="58.8344" ry="14.1669" style="stroke: #383838; stroke-width: 0.6;"/><text fill="#000000" font-family="Tahoma, sans-serif" font-size="12" lengthAdjust="spacingAndGlyphs" textLength="85" x="22.3344" y="71.9091">CanvasBlueprint</text><ellipse cx="110.0426" cy="116.7085" fill="#F8F8F8" rx="61.5426" ry="14.7085" style="stroke: #383838; stroke-width: 0.6;"/><text fill="#000000" font-family="Tahoma, sans-serif" font-size="12" lengthAdjust="spacingAndGlyphs" textLength="92" x="64.0426" y="120.4507">CanvasSequence</text><!--link CanvasBlueprint to CanvasSequence--><path d="M77.7748,81.7684 C82.5884,86.9564 88.1374,92.9369 93.2594,98.4574 " fill="none" id="CanvasBlueprint-CanvasSequence" style="stroke: #383838; stroke-width: 0.6;"/><polygon fill="#383838" points="96.7229,102.1903,93.5338,92.8721,93.3221,98.525,87.6692,98.3133,96.7229,102.1903" style="stroke: #383838; stroke-width: 0.6;"/><!--link CanvasSequence to CanvasAtom--><path d="M110,131.0097 C110,135.658 110,140.8658 110,145.746 " fill="none" id="CanvasSequence-CanvasAtom" style="stroke: #383838; stroke-width: 0.6;"/><polygon fill="#383838" points="110,150.8711,114,141.8711,110,145.8711,106,141.8711,110,150.8711" style="stroke: #383838; stroke-width: 0.6;"/><!--link <b>index</b> to CanvasBlueprint--><path d="M98.6446,32.8601 C93.5674,38.1629 87.4773,44.5237 81.8824,50.3673 " fill="none" id="&lt;b&gt;index&lt;/b&gt;-CanvasBlueprint" style="stroke: #383838; stroke-width: 1.0;"/><polygon fill="#383838" points="78.1066,54.3109,87.22,50.5764,81.5644,50.6993,81.4415,45.0438,78.1066,54.3109" style="stroke: #383838; stroke-width: 1.0;"/><!--link <b>index</b> to CanvasSequence--><path d="M121.4025,32.802 C126.2928,38.677 131.4588,46.1852 134,54 C137.8484,65.8345 137.7239,70.1258 134,82 C132.2615,87.5435 129.2826,92.9761 126.0032,97.8306 " fill="none" id="&lt;b&gt;index&lt;/b&gt;-CanvasSequence" style="stroke: #383838; stroke-width: 1.0;"/><polygon fill="#383838" points="122.9339,102.1129,131.428,97.1279,125.8466,98.0489,124.9256,92.4675,122.9339,102.1129" style="stroke: #383838; stroke-width: 1.0;"/><script type="text/plantuml"><![CDATA[
@startuml

scale max 1920 width
top to bottom direction

skinparam monochrome true
skinparam shadowing false
skinparam nodesep 20
skinparam ranksep 20
skinparam defaultFontName Tahoma
skinparam defaultFontSize 12
skinparam roundCorner 4
skinparam dpi 150
skinparam arrowThickness 0.6
skinparam packageTitleAlignment left

skinparam usecase {
  borderThickness 0.6
}

skinparam rectangle {
  borderThickness 0.6
}

skinparam component {
  borderThickness 1
}


(<b>index</b>)
(CanvasAtom)
(CanvasBlueprint)
(CanvasSequence)

(CanvasBlueprint) --> (CanvasSequence)
(CanvasSequence) --> (CanvasAtom)
(<b>index</b>) --[thickness=1]> (CanvasBlueprint)
(<b>index</b>) --[thickness=1]> (CanvasSequence)

@enduml


' View and edit on https://arkit.herokuapp.com
]]></script></g></svg>